<svg xmlns="http://www.w3.org/2000/svg" viewBox="0 0 130 25" fill="white">
  <path d="M14.9,2.9c1.8,1.9,2.8,4.3,2.8,6.9h0c0,5.3-4.5,9.5-9.9,9.5H.3c-.1,0-.2-.2-.1-.3l3.7-3.7c0,0,.1,0,.2,0h3.8c3.1,0,5.7-2.5,5.7-5.5,0-1.5-.5-3-1.6-4.1-1.1-1.1-2.5-1.7-4.1-1.7h-3.9v6.3c0,0,0,0,0,0H0C0,10.4,0,10.4,0,10.3V0C0,0,0,0,0,0h7.9C10.6,0,13,1,14.9,2.9ZM25.9,5.2c-4.7,0-6.9,3.6-6.9,7.2h0c0,3.5,2.4,7.2,7.2,7.2s6-1.9,6.6-4.8c0,0,0-.1,0-.1h-3.6s0,0,0,0c-.3,1.1-1.3,1.7-2.9,1.7s-3.2-1.2-3.5-3.2h10c0,0,0,0,0,0,0-.3,0-.7,0-1.2,0-3.2-2.2-6.8-6.9-6.8ZM25.9,8c1.9,0,2.9,1.2,3.1,2.8h-6.2c.3-1.9,1.4-2.8,3.1-2.8ZM34.5,12.4c0-3.5,2.2-7.2,6.9-7.2s6.9,3.6,6.9,6.8,0,.9,0,1.2c0,0,0,0,0,0h-10c.3,2,1.5,3.2,3.5,3.2s2.5-.6,2.9-1.7c0,0,0,0,0,0h3.6c0,0,.1,0,0,.1-.6,2.9-3.2,4.8-6.6,4.8s-7.2-3.7-7.2-7.2h0ZM44.5,10.8c-.1-1.6-1.2-2.8-3.1-2.8s-2.8.9-3.1,2.8h6.2ZM54.3,5.4h-3.7c0,0,0,0,0,0v19.4c0,0,0,0,0,0h3.7c0,0,0,0,0,0v-6.8c.7.9,2.1,1.5,3.7,1.5,4,0,6.7-2.8,6.7-7.2s-2.5-7.2-6.4-7.2-3.2.7-4,1.7v-1.4c0,0,0,0,0,0ZM61,12.4c0,2.3-1.4,3.9-3.4,3.9s-3.4-1.5-3.4-3.9,1.4-3.9,3.4-3.9,3.4,1.6,3.4,3.9ZM70.4,22.1c0,0,.1,0,.2,0h3.9c1.2,0,2-.9,2-2.2v-1.8c-.7,1-2.2,1.6-3.8,1.6-4.1,0-6.6-2.8-6.6-7.2s2.5-7.2,6.5-7.2,3.1.6,3.9,1.6v-1.3c0,0,0,0,0,0h3.7c0,0,0,0,0,0v14.7c0,2.9-2.1,4.8-5.2,4.8h-7.3c-.1,0-.2-.2-.1-.3l2.6-2.6h0ZM73.4,16.3c2.1,0,3.4-1.5,3.4-3.9s-1.3-3.9-3.4-3.9-3.4,1.5-3.4,3.9,1.4,3.9,3.4,3.9ZM87.2,19.3v-6.7h0c0-2.4.9-4,2.8-4h2.2c0,0,0,0,0,0v-3c0,0,0,0,0,0h-1.5c-1.7,0-2.8.6-3.5,2.3v-2.2c0,0,0,0,0,0h-3.7c0,0,0,0,0,0v13.7c0,0,0,0,0,0h3.7c0,0,0,0,0,0ZM93.5,15.4c0-2.7,2.1-4.4,5.1-4.4h2.3c.7,0,1.1-.4,1.1-1,0-1.2-.9-2-2.5-2s-2.5,1-2.6,2.1c0,0,0,0,0,0h-3.2c0,0-.1,0-.1-.1.2-2.7,2.5-4.9,6.2-4.9s6.1,2,6.1,5.2v8.9c0,0,0,0,0,0h-3.7c0,0,0,0,0,0v-1.8c-.5,1.3-2,2.2-3.9,2.2s-4.6-1.8-4.6-4.2h0ZM99.1,16.8c1.9,0,2.9-1.4,2.9-3.2v-.2h-2.8c-1.2,0-2,.7-2,1.8s.8,1.5,1.9,1.5h0ZM112,5.4h-3.7,0c0,0,0,0,0,0v13.7c0,0,0,0,0,0h3.7c0,0,0,0,0,0v-7.8c0-1.8,1-3,2.6-3s2.5,1.2,2.5,3v7.8c0,0,0,0,0,0h3.7c0,0,0,0,0,0v-7.8c0-1.8,1-3,2.6-3s2.5,1.2,2.5,3v7.8c0,0,0,0,0,0h3.7c0,0,0,0,0,0v-9c0-2.8-2-5-5-5s-4,1.2-4.7,2.5c-.7-1.7-2.1-2.5-4.3-2.5s-3.2.9-4,2.2v-1.9c0,0,0,0,0,0Z"/>
</svg>